<svg version="1.1" id="Layer_1" xmlns="http://www.w3.org/2000/svg" xmlns:xlink="http://www.w3.org/1999/xlink" width="160" height="50"
	 viewBox="0 0 128 40" style="enable-background:new 0 0 128 40;" xml:space="preserve">
<style type="text/css">
	.st0{display:none;}
	.st1{display:inline;}
	.st2{fill:url(#SVGID_1_);}
	
		.st3{clip-path:url(#SVGID_00000061434798575740558170000014045987748611901843_);fill:url(#SVGID_00000065038045054300023770000007454454304130196115_);}
	
		.st4{clip-path:url(#SVGID_00000178885256467621030570000016212513730619069097_);fill:url(#SVGID_00000137104395547284559220000008670455893773676425_);}
	
		.st5{clip-path:url(#SVGID_00000008839705293865161730000010682419382890099345_);fill:url(#SVGID_00000097488073532044822680000015773232554484405638_);}
</style>
<g id="Layer_2_00000047762477230257355230000001769017808541035401_" class="st0">
	<g class="st1">
		
			<linearGradient id="SVGID_1_" gradientUnits="userSpaceOnUse" x1="-56.7469" y1="-98.1758" x2="182.5656" y2="141.1367" gradientTransform="matrix(1 0 0 -1 0 39.8898)">
			<stop  offset="0" style="stop-color:#7754AB"/>
			<stop  offset="1" style="stop-color:#FE6C77"/>
		</linearGradient>
		<path class="st2" d="M62.9,187.7c-93.3,0-169.3-75.9-169.3-169.3c0-93.3,75.9-169.3,169.3-169.3c93.3,0,169.3,75.9,169.3,169.3
			C232.2,111.8,156.3,187.7,62.9,187.7z M62.9-136.4C-22.5-136.4-91.9-67-91.9,18.4S-22.4,173.3,63,173.3s154.9-69.5,154.9-154.9
			C217.8-67,148.3-136.4,62.9-136.4z"/>
	</g>
</g>
<g>
	<g>
		<defs>
			<path id="SVGID_00000181776432339949499680000012236295269186755747_" d="M23.4,23.5L22.5,22c-0.8-1.9,0.6-3.9,2.5-4.2l0,0
				c2.1-0.2,2.7,0.7,3.7,2.2c0.7,1.2,2.2,3.8,2.2,4.9c0,0.4-0.1,0.8-0.2,1.2l0,0.1l0,0.1c-0.3,0.7-0.9,1.2-1.5,1.5
				c-1.6,0.7-3.4,0-4.2-1.5l0-0.1l-1.4-2.4l0,0L23.4,23.5z M18.4,7.6c-1,0.5-1.9,1.3-2.4,2.4L12.5,16c-1.2,2.1-4.4,6.7-4.4,8.9
				c0,1.2,0.4,2.4,1.3,3.3h0c0.9,1,2.2,1.6,3.6,1.6c3.6,0,5.8-4.8,7.8-7.5l2.7,4.7c1.1,2.4,4,3.5,6.4,2.4c0.5-0.2,0.9-0.5,1.3-0.9v0
				c1-0.9,1.5-2.2,1.5-3.5c0-1.7-1.6-4.4-2.5-5.8c-0.6-1-0.8-1.5-1.8-2.2l0,0l0,0l0,0h0l0,0l0,0c-0.6-0.4-1.7-0.8-2.5-0.8l0,0
				c-0.9,0-1.7,0.1-2.6,0.6v0c-1.1,0.5-2.6,2.3-3.8,4.3c-1.3,1.9-3.8,6.9-6,7.2l-0.5,0c-1.7,0-3.1-1.4-3.1-3.1c0,0,0,0,0,0
				c0-1.7,3.2-6.5,4.2-8.1l3.5-6.2l0-0.1c0.7-1.6,2.6-2.3,4.2-1.5c0.7,0.3,1.2,0.9,1.5,1.5l0,0.1l2.6,4.5c0.8,0,1.6,0.2,2.3,0.6
				l-3.4-5.9c-0.8-1.8-2.6-2.8-4.4-2.8C19.7,7.1,19,7.2,18.4,7.6"/>
		</defs>
		<clipPath id="SVGID_00000090287662424768428760000010623167158841973418_">
			<use xlink:href="#SVGID_00000181776432339949499680000012236295269186755747_"  style="overflow:visible;"/>
		</clipPath>
		
			<linearGradient id="SVGID_00000102535585147886282040000006512415802241916853_" gradientUnits="userSpaceOnUse" x1="-122.6537" y1="208.1399" x2="-122.528" y2="208.1399" gradientTransform="matrix(135.9475 -135.9475 -135.9475 -135.9475 44980.7188 11650.666)">
			<stop  offset="0" style="stop-color:#7754AB"/>
			<stop  offset="1" style="stop-color:#FE6C77"/>
		</linearGradient>
		
			<polygon style="clip-path:url(#SVGID_00000090287662424768428760000010623167158841973418_);fill:url(#SVGID_00000102535585147886282040000006512415802241916853_);" points="
			-3.6,18.8 20.4,-5.2 44.4,18.8 20.4,42.8 		"/>
	</g>
	<g>
		<defs>
			<path id="SVGID_00000093860779685868033560000013175287616891570107_" d="M1.9,20C1.9,10,10.1,1.8,20.2,1.8
				C30.2,1.8,38.4,10,38.4,20c0,10.1-8.2,18.3-18.3,18.3C10.1,38.3,1.9,30.1,1.9,20 M0.2,20c0,11,9,20,20,20c11,0,20-9,20-20
				c0-11-9-20-20-20C9.2,0.1,0.2,9,0.2,20"/>
		</defs>
		<clipPath id="SVGID_00000036220236647966390900000014773554769802093225_">
			<use xlink:href="#SVGID_00000093860779685868033560000013175287616891570107_"  style="overflow:visible;"/>
		</clipPath>
		
			<linearGradient id="SVGID_00000139974904065112252300000003007468757541985415_" gradientUnits="userSpaceOnUse" x1="-122.6533" y1="207.9832" x2="-122.5353" y2="207.9832" gradientTransform="matrix(239.2658 -239.2658 -239.2658 -239.2658 79116.0625 20450.6836)">
			<stop  offset="0" style="stop-color:#7754AB"/>
			<stop  offset="1" style="stop-color:#FE6C77"/>
		</linearGradient>
		
			<polygon style="clip-path:url(#SVGID_00000036220236647966390900000014773554769802093225_);fill:url(#SVGID_00000139974904065112252300000003007468757541985415_);" points="
			-19.8,20 20.2,-19.9 60.1,20 20.2,60 		"/>
	</g>
	<g>
		<defs>
			<path id="SVGID_00000025409014601238172860000002721690193375226554_" d="M54,16.9l-1.9,4.7h3.7L54,16.9z M52.6,13.2h2.6
				l5.3,13.7h-2.7l-1.1-2.8h-5.6L50,26.9h-2.7L52.6,13.2z M75.2,16.2h2.3v1.3c0.2-0.5,0.6-0.9,1-1.2c0.4-0.3,0.8-0.4,1.3-0.4
				c0.3,0,0.7,0.1,1.1,0.3L80,18.5c-0.3-0.2-0.6-0.2-0.8-0.2c-0.4,0-0.7,0.2-1,0.7c-0.3,0.5-0.4,1.5-0.4,2.9l0,0.5v4.2h-2.6V16.2z
				 M86.2,18.3c-0.8,0-1.5,0.3-2,0.9c-0.5,0.6-0.8,1.3-0.8,2.2c0,0.9,0.3,1.6,0.8,2.2c0.5,0.6,1.2,0.9,2,0.9c0.8,0,1.5-0.3,2.1-0.9
				c0.5-0.6,0.8-1.3,0.8-2.3c0-0.9-0.3-1.6-0.8-2.2C87.7,18.6,87,18.3,86.2,18.3 M88.9,16.2h2.6v10.5h-2.6v-1.1
				c-0.5,0.5-1,0.8-1.5,1.1c-0.5,0.2-1.1,0.3-1.7,0.3c-1.4,0-2.5-0.5-3.5-1.6c-1-1-1.5-2.4-1.5-3.9c0-1.6,0.5-2.9,1.4-4
				c1-1,2.1-1.5,3.5-1.5c0.6,0,1.2,0.1,1.8,0.4c0.6,0.2,1.1,0.6,1.5,1.1V16.2z M103.6,18.3l-2.2,1.2c-0.4-0.4-0.8-0.7-1.2-0.9
				c-0.4-0.2-0.9-0.2-1.4-0.2c-1,0-1.8,0.3-2.4,0.9c-0.6,0.6-0.9,1.3-0.9,2.2c0,0.9,0.3,1.6,0.9,2.2c0.6,0.6,1.4,0.8,2.3,0.8
				c1.2,0,2.1-0.4,2.7-1.2l2.1,1.4c-1.1,1.5-2.7,2.2-4.8,2.2c-1.8,0-3.3-0.5-4.3-1.6c-1-1.1-1.6-2.4-1.6-3.8c0-1,0.3-1.9,0.8-2.8
				c0.5-0.9,1.2-1.5,2.1-2c0.9-0.5,1.9-0.7,3.1-0.7c1,0,2,0.2,2.8,0.6C102.4,17,103.1,17.5,103.6,18.3 M112.4,20.1
				c-0.2-0.6-0.5-1-1-1.4c-0.5-0.4-1.1-0.5-1.8-0.5c-0.7,0-1.4,0.2-1.9,0.6c-0.3,0.2-0.7,0.7-1,1.3H112.4z M115,22.2h-8.4
				c0.1,0.7,0.4,1.3,1,1.8c0.5,0.4,1.2,0.7,2,0.7c1,0,1.8-0.3,2.5-1l2.2,1c-0.5,0.8-1.2,1.4-2,1.7c-0.8,0.4-1.7,0.6-2.7,0.6
				c-1.6,0-3-0.5-4-1.6c-1-1-1.5-2.3-1.5-3.9c0-1.6,0.5-2.9,1.5-4c1-1.1,2.3-1.6,3.9-1.6c1.7,0,3,0.5,4,1.6c1,1.1,1.5,2.4,1.5,4.2
				L115,22.2z M73.3,18.1h-2v4.6c0,0.4,0,1.3,0.1,1.6c0.1,0.2,0.2,0.3,0.3,0.5c0.2,0.1,0.4,0.2,0.6,0.2c0.3,0,0.7-0.1,1-0.2l0.2,1.9
				c-0.7,0.3-1.4,0.4-2.1,0.4c-0.5,0-0.9-0.1-1.3-0.2c-0.3-0.1-0.6-0.3-0.8-0.6c-0.2-0.3-0.3-0.7-0.4-1.1c-0.1-0.6-0.1-1.4-0.1-2
				v-4.9h-1.3v-1.9h1.3v-2.2l2.5-1.5v3.7h2V18.1z M66.3,18.1h-2v4.6c0,0.4,0,1.3,0.1,1.6c0.1,0.2,0.2,0.3,0.3,0.5
				c0.2,0.1,0.4,0.2,0.6,0.2c0.3,0,0.7-0.1,1-0.2l0.2,1.9c-0.7,0.3-1.4,0.4-2.1,0.4c-0.5,0-0.9-0.1-1.3-0.2
				c-0.3-0.1-0.6-0.3-0.8-0.6c-0.2-0.3-0.3-0.7-0.4-1.1c-0.1-0.6-0.1-1.4-0.1-2v-4.9h-1.3v-1.9h1.3v-2.2l2.5-1.5v3.7h2V18.1z"/>
		</defs>
		<clipPath id="SVGID_00000170263505555056607530000012976513307294979984_">
			<use xlink:href="#SVGID_00000025409014601238172860000002721690193375226554_"  style="overflow:visible;"/>
		</clipPath>
		
			<linearGradient id="SVGID_00000122713389672600558370000000121396719283773354_" gradientUnits="userSpaceOnUse" x1="-122.4997" y1="207.8935" x2="-122.2697" y2="207.8935" gradientTransform="matrix(135.9475 -135.9475 -135.9475 -135.9475 44980.7188 11650.666)">
			<stop  offset="0" style="stop-color:#7754AB"/>
			<stop  offset="1" style="stop-color:#FE6C77"/>
		</linearGradient>
		
			<polygon style="clip-path:url(#SVGID_00000170263505555056607530000012976513307294979984_);fill:url(#SVGID_00000122713389672600558370000000121396719283773354_);" points="
			39.5,22.8 83.3,-21 127.2,22.8 83.3,66.7 		"/>
	</g>
</g>
</svg>
